<svg width="26" height="18" viewBox="0 0 26 18" fill="none" xmlns="http://www.w3.org/2000/svg">
<path d="M24.6421 7.24032H2.07385C1.33839 7.24032 0.742188 7.83653 0.742188 8.57199V8.71216C0.742188 9.44762 1.33839 10.0438 2.07385 10.0438H24.6421C25.3776 10.0438 25.9738 9.44762 25.9738 8.71216V8.57199C25.9738 7.83653 25.3776 7.24032 24.6421 7.24032Z" fill="black"/>
<path d="M24.6421 14.2491H2.07385C1.33839 14.2491 0.742188 14.8453 0.742188 15.5808V15.7209C0.742188 16.4564 1.33839 17.0526 2.07385 17.0526H24.6421C25.3776 17.0526 25.9738 16.4564 25.9738 15.7209V15.5808C25.9738 14.8453 25.3776 14.2491 24.6421 14.2491Z" fill="black"/>
<path d="M24.6421 0.231548H2.07385C1.33839 0.231548 0.742188 0.827755 0.742188 1.56321V1.70339C0.742188 2.43885 1.33839 3.03506 2.07385 3.03506H24.6421C25.3776 3.03506 25.9738 2.43885 25.9738 1.70339V1.56321C25.9738 0.827755 25.3776 0.231548 24.6421 0.231548Z" fill="black"/>
</svg>
