<svg width="34" height="25" viewBox="0 0 34 25" fill="none" xmlns="http://www.w3.org/2000/svg">
<path d="M34 12.2225C34 12.1391 34 12.0442 33.9962 11.9342C33.9924 11.6268 33.9848 11.2815 33.9772 10.9134C33.9469 9.85469 33.8938 8.79978 33.8103 7.80558C33.6964 6.43571 33.5295 5.29353 33.3018 4.43594C33.0615 3.54097 32.5906 2.72474 31.936 2.06883C31.2814 1.41291 30.4661 0.940297 29.5717 0.698214C28.4978 0.409821 26.3955 0.231473 23.4357 0.121428C22.0279 0.0683035 20.5214 0.0341516 19.015 0.0151783C18.4875 0.00758905 17.998 0.00379464 17.5578 0H16.4422C16.002 0.00379464 15.5125 0.00758905 14.985 0.0151783C13.4786 0.0341516 11.9721 0.0683035 10.5643 0.121428C7.60446 0.235268 5.49844 0.413616 4.42835 0.698214C3.53358 0.939703 2.71799 1.41212 2.06331 2.06812C1.40864 2.72413 0.937884 3.54068 0.698214 4.43594C0.466741 5.29353 0.303571 6.43571 0.189732 7.80558C0.10625 8.79978 0.0531249 9.85469 0.0227678 10.9134C0.0113839 11.2815 0.00758923 11.6268 0.00379459 11.9342C0.00379459 12.0442 0 12.1391 0 12.2225V12.435C0 12.5185 -5.79582e-08 12.6134 0.00379459 12.7234C0.00758923 13.0308 0.0151785 13.3761 0.0227678 13.7442C0.0531249 14.8029 0.10625 15.8578 0.189732 16.852C0.303571 18.2219 0.470536 19.3641 0.698214 20.2217C1.18393 22.0393 2.61071 23.4737 4.42835 23.9594C5.49844 24.2478 7.60446 24.4261 10.5643 24.5362C11.9721 24.5893 13.4786 24.6234 14.985 24.6424C15.5125 24.65 16.002 24.6538 16.4422 24.6576H17.5578C17.998 24.6538 18.4875 24.65 19.015 24.6424C20.5214 24.6234 22.0279 24.5893 23.4357 24.5362C26.3955 24.4223 28.5016 24.244 29.5717 23.9594C31.3893 23.4737 32.8161 22.0431 33.3018 20.2217C33.5333 19.3641 33.6964 18.2219 33.8103 16.852C33.8938 15.8578 33.9469 14.8029 33.9772 13.7442C33.9886 13.3761 33.9924 13.0308 33.9962 12.7234C33.9962 12.6134 34 12.5185 34 12.435V12.2225V12.2225ZM31.2679 12.4199C31.2679 12.4996 31.2679 12.5868 31.2641 12.6893C31.2603 12.9853 31.2527 13.3116 31.2451 13.6645C31.2185 14.6739 31.1654 15.6833 31.0857 16.6205C30.9833 17.8424 30.8391 18.8442 30.6607 19.5159C30.4254 20.3924 29.7348 21.0868 28.8621 21.3183C28.0652 21.5308 26.0578 21.7016 23.3295 21.804C21.9482 21.8571 20.4607 21.8913 18.977 21.9103C18.4571 21.9179 17.9752 21.9217 17.5426 21.9217H16.4574L15.023 21.9103C13.5393 21.8913 12.0556 21.8571 10.6705 21.804C7.94219 21.6978 5.93103 21.5308 5.13795 21.3183C4.26518 21.083 3.57455 20.3924 3.33929 19.5159C3.16094 18.8442 3.01674 17.8424 2.91429 16.6205C2.8346 15.6833 2.78527 14.6739 2.75491 13.6645C2.74353 13.3116 2.73973 12.9815 2.73594 12.6893C2.73594 12.5868 2.73214 12.4958 2.73214 12.4199V12.2377C2.73214 12.158 2.73214 12.0708 2.73594 11.9683C2.73973 11.6723 2.74732 11.346 2.75491 10.9931C2.78147 9.9837 2.8346 8.97433 2.91429 8.03705C3.01674 6.81518 3.16094 5.81339 3.33929 5.14174C3.57455 4.26518 4.26518 3.57076 5.13795 3.33929C5.93482 3.12679 7.94219 2.95603 10.6705 2.85357C12.0518 2.80045 13.5393 2.76629 15.023 2.74732C15.5429 2.73973 16.0248 2.73594 16.4574 2.73594H17.5426L18.977 2.74732C20.4607 2.76629 21.9444 2.80045 23.3295 2.85357C26.0578 2.95982 28.069 3.12679 28.8621 3.33929C29.7348 3.57455 30.4254 4.26518 30.6607 5.14174C30.8391 5.81339 30.9833 6.81518 31.0857 8.03705C31.1654 8.97433 31.2147 9.9837 31.2451 10.9931C31.2565 11.346 31.2603 11.6761 31.2641 11.9683C31.2641 12.0708 31.2679 12.1618 31.2679 12.2377V12.4199ZM13.6228 17.4136L22.4263 12.2908L13.6228 7.24397V17.4136Z" fill="white"/>
</svg>
